<?xml version="1.0" encoding="UTF-8" standalone="no"?>
<svg
   width="300"
   height="300"
   version="1.1"
   id="svg8"
   xmlns="http://www.w3.org/2000/svg"
   xmlns:svg="http://www.w3.org/2000/svg">
  <defs
     id="defs12" />
  <g
     fill="none"
     id="g6"
     transform="scale(0.52562418)">
    <circle
       fill="#ffffff"
       cx="285.38"
       cy="285.38"
       r="204.92"
       id="circle2" />
    <path
       d="m 0,285.38 c 0,157.61 127.77,285.37 285.38,285.37 157.61,0 285.37,-127.76 285.37,-285.37 C 570.75,127.77 442.99,0 285.38,0 127.77,0 0,127.77 0,285.38 Z m 285.38,179.33 c -96.47,0 -179.18,-78.21 -179.18,-174.68 0,-22.65 4.31,-48.8 12.15,-68.66 l 77,32.79 c -0.25,1.07 -0.57,2.47 -0.92,4.07 a 94.33,94.33 0 0 0 -4,23.12 34.69,34.69 0 0 0 -0.17,4.68 c 0,0.36 0.05,0.71 0.07,1.07 a 94.56,94.56 0 0 0 116.11,90.91 l 43.76,74.3 a 174.203,174.203 0 0 1 -64.76,12.4 M 450.73,356.34 255.33,273.55 380.64,273 c -4.48,-45.46 -51.2,-82.36 -95.26,-82.36 a 89.82,89.82 0 0 0 -29.37,4.9 l -43.37,-73.68 a 174.053,174.053 0 0 1 72.72,-15.81 c 96.47,0 178.91,79.65 178.91,176.12 0,26 -3.36,52 -13.56,74.17"
       fill="#1896a4"
       id="path4" />
  </g>
</svg>
